# xmcd
#
# Track frame offsets:
#  150
#  10772
#  29537
#  40405
#  53045
#  64612
#
# Disc length: 1036 seconds
#
# Revision: 0
# Processed by: cddbd v1.5.1PL2 Copyright (c) Steve Scherf et al.
# Submitted via: Collectorz.com_Music_Collector 6.9
#
DISCID=46040a06
DTITLE=Midnight Roses - Is It Love
DYEAR=1999
DGENRE=Country
TTITLE0=Is it me, is it you, is it love
TTITLE1=Old Country
TTITLE2=Love bug
TTITLE3=Ditry little town
TTITLE4=Going through the big "d"
TTITLE5=King of broken hearts
EXTD=
EXTT0=
EXTT1=
EXTT2=
EXTT3=
EXTT4=
EXTT5=
PLAYORDER=
